<svg xmlns="http://www.w3.org/2000/svg" xmlns:xlink="http://www.w3.org/1999/xlink" viewBox="0 0 16 20" version="1.1" x="0px" y="0px"><title>arrow-double-right</title><desc>Created with Sketch.</desc><g stroke="none" stroke-width="1" fill="none" fill-rule="evenodd"><g fill="#000000"><path d="M3.919,2.001 C4.015,2.001 4.1,2.038 4.174,2.112 L9.329,7.267 C9.403,7.341 9.44,7.426 9.44,7.522 C9.44,7.617 9.403,7.702 9.329,7.776 L4.174,12.931 C4.1,13.005 4.015,13.042 3.919,13.042 C3.823,13.042 3.738,13.005 3.664,12.931 L3.111,12.378 C3.037,12.304 3,12.219 3,12.123 C3,12.028 3.037,11.943 3.111,11.869 L7.459,7.521 L3.111,3.173 C3.037,3.099 3,3.014 3,2.919 C3,2.823 3.037,2.738 3.111,2.664 L3.664,2.111 C3.738,2.037 3.823,2 3.919,2 L3.919,2.001 Z M8.167,2.001 C8.263,2.001 8.348,2.038 8.422,2.112 L13.577,7.267 C13.651,7.341 13.688,7.426 13.688,7.522 C13.688,7.617 13.651,7.702 13.577,7.776 L8.422,12.931 C8.348,13.005 8.263,13.042 8.167,13.042 C8.071,13.042 7.986,13.005 7.912,12.931 L7.359,12.378 C7.285,12.304 7.248,12.219 7.248,12.123 C7.248,12.028 7.285,11.943 7.359,11.869 L11.707,7.521 L7.359,3.173 C7.285,3.099 7.248,3.014 7.248,2.919 C7.248,2.823 7.285,2.738 7.359,2.664 L7.912,2.111 C7.986,2.037 8.071,2 8.167,2 L8.167,2.001 Z"/></g></g><text x="0" y="31" fill="#000000" font-size="5px" font-weight="bold" font-family="'Helvetica Neue', Helvetica, Arial-Unicode, Arial, Sans-serif">Created by Futishia</text><text x="0" y="36" fill="#000000" font-size="5px" font-weight="bold" font-family="'Helvetica Neue', Helvetica, Arial-Unicode, Arial, Sans-serif">from the Noun Project</text></svg>