<svg xmlns="http://www.w3.org/2000/svg" xmlns:xlink="http://www.w3.org/1999/xlink" version="1.1" x="0px" y="0px" viewBox="0 0 100 125" enable-background="new 0 0 100 100" xml:space="preserve"><symbol viewBox="-0.55 -8.85 10.95 11.05"><g><path fill-rule="evenodd" clip-rule="evenodd" d="M2.4,2.2h5C9-1.5,10-5.183,10.4-8.85H-0.55C-0.15-5.283,0.833-1.6,2.4,2.2z"/></g></symbol><g><g><g><path d="M82.431,27.487l-3.962-6.565c-0.2-0.33-0.558-0.533-0.943-0.533h-23.73c-0.387,0-0.743,0.203-0.942,0.533l-4.034,6.684     c-0.019,0.031-0.027,0.065-0.042,0.098c-0.014,0.029-0.027,0.057-0.038,0.088c-0.045,0.122-0.076,0.248-0.076,0.376     c0,0.002-0.001,0.005-0.001,0.007v6.092l-8.373-7.678l-0.002,0.007c-1.609-2.747-4.652-4.352-7.912-3.94     c-4.417,0.556-7.545,4.586-6.99,9.002l3.717,26.951l0.05-0.007L17.711,87.322c-1.063,2.7,0.19,5.586,2.742,6.591     c2.478,0.977,5.263-0.182,6.344-2.583l10.313-25.331l4.526,25.185c0.611,2.562,3.128,4.222,5.745,3.73     c2.696-0.508,4.469-3.106,3.932-5.959l-6.26-32.528l-0.036-0.004l-2.141-15.554l5.785,5.075v6.323     c0,0.608,0.494,1.102,1.102,1.102h31.795c0.607,0,1.102-0.493,1.102-1.102V28.224c0.001-0.017,0.01-0.031,0.01-0.048     C82.669,27.915,82.58,27.676,82.431,27.487z M66.762,22.592h10.143l2.703,4.482H66.762V22.592z M54.415,22.592h10.143v4.482     H51.712L54.415,22.592z M80.455,51.166H50.864V47.83h15.247l0.478-0.003c2.553-0.048,4.471-2.04,4.425-4.451     c-0.044-2.34-1.922-4.21-4.237-4.276H53.931l-3.066-2.812v-7.012h29.591V51.166z M38.104,21.373c4.245,0,7.686-3.441,7.686-7.687     C45.79,9.442,42.35,6,38.104,6c-4.245,0-7.687,3.442-7.687,7.687C30.418,17.932,33.86,21.373,38.104,21.373z"/></g></g></g></svg>