<svg xmlns="http://www.w3.org/2000/svg" xmlns:xlink="http://www.w3.org/1999/xlink" version="1.1" x="0px" y="0px" viewBox="0 0 144.083 180" enable-background="new 0 0 144.083 144" xml:space="preserve"><path d="M126.905,92.725c0-9.021-5.79-19.768-15.109-28.045C101.028,55.116,86.91,49.85,72.04,49.85  c-31.825,0-54.862,25.61-54.862,42.875v1.607l0.062,0.041c-0.003,0.056-0.017,0.107-0.017,0.164c0,1.657,1.343,3,3,3  c2.042,0,3.473,0.254,4.694,0.635l3.771,19.547c0.169,4.127,3.579,7.432,7.747,7.432h71.215c4.167,0,7.576-3.305,7.745-7.432  l3.771-19.547c1.221-0.381,2.652-0.635,4.695-0.635c1.657,0,3-1.343,3-3c0-0.08-0.018-0.154-0.023-0.232l0.068-0.05V92.725z   M72.04,55.85c28.402,0,47.563,20.747,48.802,35.391l-0.621,0.45c-0.054,0.039-0.096,0.088-0.146,0.13  c-2.674,0.419-4.479,1.238-6.113,1.994c-1.996,0.925-3.72,1.723-7.378,1.723c-3.657,0-5.381-0.798-7.376-1.722  c-2.306-1.068-4.919-2.278-9.899-2.278c-4.979,0-7.592,1.21-9.897,2.277c-1.995,0.925-3.719,1.723-7.376,1.723  s-5.381-0.798-7.376-1.723c-2.306-1.067-4.918-2.277-9.897-2.277c-4.977,0-7.589,1.21-9.894,2.278  c-1.994,0.924-3.717,1.722-7.373,1.722c-3.657,0-5.38-0.798-7.375-1.722c-1.599-0.741-3.366-1.541-5.947-1.968  c-0.137-0.135-0.287-0.261-0.453-0.371l-0.464-0.309C24.662,76.675,45.14,55.85,72.04,55.85z M109.401,117.398  c0,0.966-0.786,1.752-1.752,1.752H36.434c-0.967,0-1.753-0.786-1.753-1.752v-0.287l-3.147-16.315  c1.566,0.438,3.466,0.741,5.961,0.741c4.979,0,7.59-1.21,9.895-2.278c1.994-0.924,3.717-1.722,7.371-1.722  c3.657,0,5.381,0.798,7.376,1.723c2.306,1.067,4.918,2.277,9.897,2.277s7.592-1.21,9.897-2.277c1.995-0.925,3.719-1.723,7.376-1.723  c3.658,0,5.382,0.798,7.378,1.723c2.306,1.067,4.918,2.277,9.897,2.277c2.498,0,4.399-0.305,5.967-0.742l-3.148,16.316V117.398z"/><rect x="69.042" y="67.178" width="6" height="10.869"/><rect x="82.736" y="69.613" transform="matrix(0.2951 0.9555 -0.9555 0.2951 131.5714 -33.1081)" width="10.975" height="5.999"/><rect x="52.857" y="67.125" transform="matrix(0.9554 0.2953 -0.2953 0.9554 23.9291 -13.2548)" width="6" height="10.976"/><path d="M55.838,43.141c1.852,0,3.701,0,5.551,0c6.664-8.096-6.662-16.193,0-24.291c-1.85,0-3.699,0-5.551,0  C49.174,26.947,62.502,35.045,55.838,43.141z"/><path d="M69.264,43.141c1.852,0,3.703,0,5.553,0c6.664-8.096-6.664-16.193,0-24.291c-1.85,0-3.701,0-5.553,0  C62.6,26.947,75.928,35.045,69.264,43.141z"/><path d="M82.692,43.141c1.852,0,3.701,0,5.553,0c6.664-8.096-6.664-16.193,0-24.291c-1.852,0-3.701,0-5.553,0  C76.028,26.947,89.356,35.045,82.692,43.141z"/></svg>