<svg xmlns="http://www.w3.org/2000/svg" xmlns:xlink="http://www.w3.org/1999/xlink" version="1.1" x="0px" y="0px" viewBox="0 0 100 125" enable-background="new 0 0 100 100" xml:space="preserve"><g><path fill="#000000" d="M82.269,56.016H48.895c-1.184,0-2.144,0.96-2.144,2.144v21.496c0,1.184,0.96,2.144,2.144,2.144h33.374   c1.184,0,2.144-0.96,2.144-2.144V58.161C84.413,56.976,83.453,56.016,82.269,56.016z M80.125,77.513H51.039V60.305h29.085V77.513z"/><path fill="#000000" d="M98.855,30.269l-9.17-9.36v-9.358c0-1.184-0.96-2.144-2.144-2.144H12.459c-1.184,0-2.144,0.96-2.144,2.144   v9.358l-9.17,9.36c-0.393,0.401-0.613,0.939-0.613,1.501v8.16c0,4.196,2.238,7.879,5.582,9.918v38.601   c0,1.184,0.96,2.144,2.144,2.144h10.815c0.011,0,0.02-0.003,0.031-0.003c0.011,0,0.02,0.003,0.031,0.003   c1.184,0,2.144-0.96,2.144-2.144V60.305h15.371v28.144c0,1.184,0.96,2.144,2.144,2.144h52.508c1.184,0,2.144-0.96,2.144-2.144V50.1   c3.585-1.978,6.019-5.795,6.019-10.17v-8.16C99.467,31.208,99.247,30.67,98.855,30.269z M14.604,13.696h70.792v5.945H14.604V13.696   z M89.16,86.304H40.94V58.161c0-1.184-0.96-2.144-2.144-2.144h-19.66c-1.184,0-2.144,0.96-2.144,2.144v28.144h-6.588V51.408   c0.567,0.086,1.147,0.13,1.738,0.13c3.901,0,7.358-1.934,9.465-4.894c2.106,2.96,5.564,4.894,9.465,4.894s7.358-1.934,9.465-4.894   c2.106,2.96,5.564,4.894,9.465,4.894s7.359-1.934,9.465-4.894c2.106,2.959,5.564,4.894,9.465,4.894s7.358-1.934,9.465-4.894   c2.106,2.96,5.564,4.894,9.465,4.894c0.44,0,0.874-0.027,1.302-0.075V86.304z M95.178,39.929c0,4.036-3.284,7.32-7.32,7.32   s-7.32-3.284-7.32-7.32c0-1.184-0.96-2.144-2.144-2.144c-1.184,0-2.144,0.96-2.144,2.144c0,4.036-3.284,7.32-7.32,7.32   s-7.32-3.284-7.32-7.32c0-1.184-0.96-2.144-2.144-2.144c-1.184,0-2.144,0.96-2.144,2.144c0,4.036-3.284,7.32-7.321,7.32   s-7.32-3.284-7.32-7.32c0-1.184-0.96-2.144-2.144-2.144c-1.184,0-2.144,0.96-2.144,2.144c0,4.036-3.284,7.32-7.32,7.32   s-7.32-3.284-7.32-7.32c0-1.184-0.96-2.144-2.144-2.144s-2.144,0.96-2.144,2.144c0,4.036-3.284,7.32-7.32,7.32   s-7.32-3.284-7.32-7.32v-7.285l8.539-8.716H86.64l8.539,8.716V39.929z"/></g></svg>